<svg xmlns="http://www.w3.org/2000/svg" width="900" height="520" viewBox="0 0 900 520" role="img" aria-label="Page load event"><g font-family="Arial, 'Microsoft YaHei', sans-serif"><rect width="900" height="520" fill="#ffffff"/><text x="92" y="34" font-size="22" font-weight="700" fill="#18212b">Page load event</text><line x1="92" y1="444" x2="846" y2="444" stroke="#e4e8ec"/><text x="80" y="448" text-anchor="end" font-size="12" fill="#596b7d">99.6</text><line x1="92" y1="368" x2="846" y2="368" stroke="#e4e8ec"/><text x="80" y="372" text-anchor="end" font-size="12" fill="#596b7d">173</text><line x1="92" y1="292" x2="846" y2="292" stroke="#e4e8ec"/><text x="80" y="296" text-anchor="end" font-size="12" fill="#596b7d">246</text><line x1="92" y1="216" x2="846" y2="216" stroke="#e4e8ec"/><text x="80" y="220" text-anchor="end" font-size="12" fill="#596b7d">319</text><line x1="92" y1="140" x2="846" y2="140" stroke="#e4e8ec"/><text x="80" y="144" text-anchor="end" font-size="12" fill="#596b7d">392</text><line x1="92" y1="64" x2="846" y2="64" stroke="#e4e8ec"/><text x="80" y="68" text-anchor="end" font-size="12" fill="#596b7d">465</text><text transform="translate(24 260) rotate(-90)" text-anchor="middle" font-size="13" fill="#526579">milliseconds</text><line x1="217.66666666666669" y1="95.66666666666666" x2="217.66666666666669" y2="102.01874383198418" stroke="#496f96" stroke-width="2"/><line x1="188.34444444444446" y1="95.66666666666666" x2="246.9888888888889" y2="95.66666666666666" stroke="#496f96" stroke-width="2"/><line x1="188.34444444444446" y1="102.01874383198418" x2="246.9888888888889" y2="102.01874383198418" stroke="#496f96" stroke-width="2"/><rect x="173.68333333333334" y="97.87948043214436" width="87.96666666666667" height="2.2909130770495665" fill="#496f96" fill-opacity="0.18" stroke="#496f96" stroke-width="2"/><line x1="173.68333333333334" y1="99.25923490005071" x2="261.65000000000003" y2="99.25923490005071" stroke="#496f96" stroke-width="3"/><circle cx="193.4666666666667" cy="102.01874383198418" r="3.2" fill="#496f96" fill-opacity="0.65"/><circle cx="224.26666666666668" cy="101.08155212027677" r="3.2" fill="#496f96" fill-opacity="0.65"/><circle cx="204.4666666666667" cy="100.56089005347579" r="3.2" fill="#496f96" fill-opacity="0.65"/><circle cx="235.26666666666668" cy="100.45675764321899" r="3.2" fill="#496f96" fill-opacity="0.65"/><circle cx="215.4666666666667" cy="100.35262523296218" r="3.2" fill="#496f96" fill-opacity="0.65"/><circle cx="195.66666666666669" cy="100.35262522908295" r="3.2" fill="#496f96" fill-opacity="0.65"/><circle cx="226.4666666666667" cy="100.35262522908295" r="3.2" fill="#496f96" fill-opacity="0.65"/><circle cx="206.66666666666669" cy="100.24849281882615" r="3.2" fill="#496f96" fill-opacity="0.65"/><circle cx="237.4666666666667" cy="99.93609558029726" r="3.2" fill="#496f96" fill-opacity="0.65"/><circle cx="217.66666666666669" cy="99.93609558029726" r="3.2" fill="#496f96" fill-opacity="0.65"/><circle cx="197.86666666666667" cy="99.72783075590442" r="3.2" fill="#496f96" fill-opacity="0.65"/><circle cx="228.66666666666669" cy="99.72783075590442" r="3.2" fill="#496f96" fill-opacity="0.65"/><circle cx="208.86666666666667" cy="99.51956592763234" r="3.2" fill="#496f96" fill-opacity="0.65"/><circle cx="239.66666666666669" cy="99.41543351737553" r="3.2" fill="#496f96" fill-opacity="0.65"/><circle cx="219.86666666666667" cy="99.31130110711874" r="3.2" fill="#496f96" fill-opacity="0.65"/><circle cx="200.0666666666667" cy="99.20716869298269" r="3.2" fill="#496f96" fill-opacity="0.65"/><circle cx="230.86666666666667" cy="99.20716869298269" r="3.2" fill="#496f96" fill-opacity="0.65"/><circle cx="211.0666666666667" cy="99.20716868910347" r="3.2" fill="#496f96" fill-opacity="0.65"/><circle cx="241.86666666666667" cy="99.10303627884664" r="3.2" fill="#496f96" fill-opacity="0.65"/><circle cx="222.0666666666667" cy="98.16584456713923" r="3.2" fill="#496f96" fill-opacity="0.65"/><circle cx="202.26666666666668" cy="98.16584456326001" r="3.2" fill="#496f96" fill-opacity="0.65"/><circle cx="233.0666666666667" cy="97.95757974274639" r="3.2" fill="#496f96" fill-opacity="0.65"/><circle cx="213.26666666666668" cy="97.85344732861036" r="3.2" fill="#496f96" fill-opacity="0.65"/><circle cx="193.4666666666667" cy="97.64518250421752" r="3.2" fill="#496f96" fill-opacity="0.65"/><circle cx="224.26666666666668" cy="97.02038803103898" r="3.2" fill="#496f96" fill-opacity="0.65"/><circle cx="204.4666666666667" cy="96.91625561690294" r="3.2" fill="#496f96" fill-opacity="0.65"/><circle cx="235.26666666666668" cy="96.81212320276691" r="3.2" fill="#496f96" fill-opacity="0.65"/><circle cx="215.4666666666667" cy="96.70799078863087" r="3.2" fill="#496f96" fill-opacity="0.65"/><circle cx="195.66666666666669" cy="96.29146113984518" r="3.2" fill="#496f96" fill-opacity="0.65"/><circle cx="226.4666666666667" cy="95.66666666666666" r="3.2" fill="#496f96" fill-opacity="0.65"/><text x="217.66666666666669" y="478" text-anchor="middle" font-size="15" font-weight="700" fill="#263645">HTTP/1.1</text><text x="217.66666666666669" y="498" text-anchor="middle" font-size="12" fill="#6a7784">n=30, median=431</text><line x1="469" y1="397.4423983329961" x2="469" y2="409.4176257801958" stroke="#c06a42" stroke-width="2"/><line x1="439.6777777777778" y1="397.4423983329961" x2="498.3222222222222" y2="397.4423983329961" stroke="#c06a42" stroke-width="2"/><line x1="439.6777777777778" y1="409.4176257801958" x2="498.3222222222222" y2="409.4176257801958" stroke="#c06a42" stroke-width="2"/><rect x="425.01666666666665" y="403.8725748108553" width="87.96666666666667" height="3.0458730678980714" fill="#c06a42" fill-opacity="0.18" stroke="#c06a42" stroke-width="2"/><line x1="425.01666666666665" y1="405.82505754681176" x2="512.9833333333333" y2="405.82505754681176" stroke="#c06a42" stroke-width="3"/><circle cx="444.8" cy="409.4176257801958" r="3.2" fill="#c06a42" fill-opacity="0.65"/><circle cx="475.6" cy="409.1052285416669" r="3.2" fill="#c06a42" fill-opacity="0.65"/><circle cx="455.8" cy="408.7928313070173" r="3.2" fill="#c06a42" fill-opacity="0.65"/><circle cx="486.6" cy="407.9597720016875" r="3.2" fill="#c06a42" fill-opacity="0.65"/><circle cx="466.8" cy="407.54324235678104" r="3.2" fill="#c06a42" fill-opacity="0.65"/><circle cx="447" cy="407.43910994264496" r="3.2" fill="#c06a42" fill-opacity="0.65"/><circle cx="477.8" cy="407.1267127041161" r="3.2" fill="#c06a42" fill-opacity="0.65"/><circle cx="458" cy="406.91844787972326" r="3.2" fill="#c06a42" fill-opacity="0.65"/><circle cx="488.8" cy="406.91844787584404" r="3.2" fill="#c06a42" fill-opacity="0.65"/><circle cx="469" cy="406.6060506411944" r="3.2" fill="#c06a42" fill-opacity="0.65"/><circle cx="449.2" cy="406.2936534026655" r="3.2" fill="#c06a42" fill-opacity="0.65"/><circle cx="480" cy="406.0853885782726" r="3.2" fill="#c06a42" fill-opacity="0.65"/><circle cx="460.2" cy="405.9812561680158" r="3.2" fill="#c06a42" fill-opacity="0.65"/><circle cx="491" cy="405.9812561641366" r="3.2" fill="#c06a42" fill-opacity="0.65"/><circle cx="471.2" cy="405.8771237538798" r="3.2" fill="#c06a42" fill-opacity="0.65"/><circle cx="451.4" cy="405.7729913397437" r="3.2" fill="#c06a42" fill-opacity="0.65"/><circle cx="482.2" cy="405.5647265153509" r="3.2" fill="#c06a42" fill-opacity="0.65"/><circle cx="462.4" cy="405.04406445242915" r="3.2" fill="#c06a42" fill-opacity="0.65"/><circle cx="493.2" cy="404.93993204217236" r="3.2" fill="#c06a42" fill-opacity="0.65"/><circle cx="473.4" cy="404.8357996241571" r="3.2" fill="#c06a42" fill-opacity="0.65"/><circle cx="453.6" cy="404.73166721390027" r="3.2" fill="#c06a42" fill-opacity="0.65"/><circle cx="484.4" cy="404.4192699792506" r="3.2" fill="#c06a42" fill-opacity="0.65"/><circle cx="464.6" cy="403.6903430880568" r="3.2" fill="#c06a42" fill-opacity="0.65"/><circle cx="444.8" cy="403.5862106739208" r="3.2" fill="#c06a42" fill-opacity="0.65"/><circle cx="475.6" cy="403.482078263664" r="3.2" fill="#c06a42" fill-opacity="0.65"/><circle cx="455.8" cy="402.1283568992917" r="3.2" fill="#c06a42" fill-opacity="0.65"/><circle cx="486.6" cy="402.1283568992917" r="3.2" fill="#c06a42" fill-opacity="0.65"/><circle cx="466.8" cy="402.0242244851556" r="3.2" fill="#c06a42" fill-opacity="0.65"/><circle cx="447" cy="400.3581058861336" r="3.2" fill="#c06a42" fill-opacity="0.65"/><circle cx="477.8" cy="397.4423983329961" r="3.2" fill="#c06a42" fill-opacity="0.65"/><text x="469" y="478" text-anchor="middle" font-size="15" font-weight="700" fill="#263645">HTTP/2</text><text x="469" y="498" text-anchor="middle" font-size="12" fill="#6a7784">n=30, median=136</text><line x1="720.3333333333334" y1="398.2754576344467" x2="720.3333333333334" y2="412.33333333333337" stroke="#3c8d6d" stroke-width="2"/><line x1="691.0111111111112" y1="398.2754576344467" x2="749.6555555555556" y2="398.2754576344467" stroke="#3c8d6d" stroke-width="2"/><line x1="691.0111111111112" y1="412.33333333333337" x2="749.6555555555556" y2="412.33333333333337" stroke="#3c8d6d" stroke-width="2"/><rect x="676.35" y="407.6734078705718" width="87.96666666666667" height="2.525211004976427" fill="#3c8d6d" fill-opacity="0.18" stroke="#3c8d6d" stroke-width="2"/><line x1="676.35" y1="409.3134933679994" x2="764.3166666666667" y2="409.3134933679994" stroke="#3c8d6d" stroke-width="3"/><circle cx="696.1333333333333" cy="412.33333333333337" r="3.2" fill="#3c8d6d" fill-opacity="0.65"/><circle cx="726.9333333333334" cy="411.5002740318827" r="3.2" fill="#3c8d6d" fill-opacity="0.65"/><circle cx="707.1333333333333" cy="411.18787679335384" r="3.2" fill="#3c8d6d" fill-opacity="0.65"/><circle cx="737.9333333333334" cy="410.66721473431136" r="3.2" fill="#3c8d6d" fill-opacity="0.65"/><circle cx="718.1333333333333" cy="410.66721473043214" r="3.2" fill="#3c8d6d" fill-opacity="0.65"/><circle cx="698.3333333333334" cy="410.45894990603927" r="3.2" fill="#3c8d6d" fill-opacity="0.65"/><circle cx="729.1333333333333" cy="410.35481749190325" r="3.2" fill="#3c8d6d" fill-opacity="0.65"/><circle cx="709.3333333333334" cy="410.25068508164645" r="3.2" fill="#3c8d6d" fill-opacity="0.65"/><circle cx="740.1333333333333" cy="410.0424202572536" r="3.2" fill="#3c8d6d" fill-opacity="0.65"/><circle cx="720.3333333333334" cy="410.0424202572536" r="3.2" fill="#3c8d6d" fill-opacity="0.65"/><circle cx="700.5333333333334" cy="410.04242025337436" r="3.2" fill="#3c8d6d" fill-opacity="0.65"/><circle cx="731.3333333333334" cy="409.93828784311756" r="3.2" fill="#3c8d6d" fill-opacity="0.65"/><circle cx="711.5333333333334" cy="409.8341554328607" r="3.2" fill="#3c8d6d" fill-opacity="0.65"/><circle cx="742.3333333333334" cy="409.6258906045887" r="3.2" fill="#3c8d6d" fill-opacity="0.65"/><circle cx="722.5333333333334" cy="409.5217581943319" r="3.2" fill="#3c8d6d" fill-opacity="0.65"/><circle cx="702.7333333333333" cy="409.1052285416669" r="3.2" fill="#3c8d6d" fill-opacity="0.65"/><circle cx="733.5333333333334" cy="409.1052285416669" r="3.2" fill="#3c8d6d" fill-opacity="0.65"/><circle cx="713.7333333333333" cy="409.0010961314101" r="3.2" fill="#3c8d6d" fill-opacity="0.65"/><circle cx="744.5333333333334" cy="408.7928313070173" r="3.2" fill="#3c8d6d" fill-opacity="0.65"/><circle cx="724.7333333333333" cy="408.7928313031381" r="3.2" fill="#3c8d6d" fill-opacity="0.65"/><circle cx="704.9333333333334" cy="408.3763016543524" r="3.2" fill="#3c8d6d" fill-opacity="0.65"/><circle cx="735.7333333333333" cy="407.75150718117385" r="3.2" fill="#3c8d6d" fill-opacity="0.65"/><circle cx="715.9333333333334" cy="407.64737476703783" r="3.2" fill="#3c8d6d" fill-opacity="0.65"/><circle cx="696.1333333333333" cy="407.5432423529018" r="3.2" fill="#3c8d6d" fill-opacity="0.65"/><circle cx="726.9333333333334" cy="407.1267127041161" r="3.2" fill="#3c8d6d" fill-opacity="0.65"/><circle cx="707.1333333333333" cy="407.02258028998006" r="3.2" fill="#3c8d6d" fill-opacity="0.65"/><circle cx="737.9333333333334" cy="406.50191822705835" r="3.2" fill="#3c8d6d" fill-opacity="0.65"/><circle cx="718.1333333333333" cy="406.3977858168015" r="3.2" fill="#3c8d6d" fill-opacity="0.65"/><circle cx="698.3333333333334" cy="406.3977858168015" r="3.2" fill="#3c8d6d" fill-opacity="0.65"/><circle cx="729.1333333333333" cy="398.2754576344467" r="3.2" fill="#3c8d6d" fill-opacity="0.65"/><text x="720.3333333333334" y="478" text-anchor="middle" font-size="15" font-weight="700" fill="#263645">HTTP/3</text><text x="720.3333333333334" y="498" text-anchor="middle" font-size="12" fill="#6a7784">n=30, median=133</text></g></svg>
