<svg xmlns="http://www.w3.org/2000/svg" width="900" height="520" viewBox="0 0 900 520" role="img" aria-label="SVG resource completion span"><g font-family="Arial, 'Microsoft YaHei', sans-serif"><rect width="900" height="520" fill="#ffffff"/><text x="92" y="34" font-size="22" font-weight="700" fill="#18212b">SVG resource completion span</text><line x1="92" y1="444" x2="846" y2="444" stroke="#e4e8ec"/><text x="80" y="448" text-anchor="end" font-size="12" fill="#596b7d">80.3</text><line x1="92" y1="368" x2="846" y2="368" stroke="#e4e8ec"/><text x="80" y="372" text-anchor="end" font-size="12" fill="#596b7d">157</text><line x1="92" y1="292" x2="846" y2="292" stroke="#e4e8ec"/><text x="80" y="296" text-anchor="end" font-size="12" fill="#596b7d">233</text><line x1="92" y1="216.00000000000006" x2="846" y2="216.00000000000006" stroke="#e4e8ec"/><text x="80" y="220.00000000000006" text-anchor="end" font-size="12" fill="#596b7d">310</text><line x1="92" y1="140.00000000000003" x2="846" y2="140.00000000000003" stroke="#e4e8ec"/><text x="80" y="144.00000000000003" text-anchor="end" font-size="12" fill="#596b7d">386</text><line x1="92" y1="64" x2="846" y2="64" stroke="#e4e8ec"/><text x="80" y="68" text-anchor="end" font-size="12" fill="#596b7d">462</text><text transform="translate(24 260) rotate(-90)" text-anchor="middle" font-size="13" fill="#526579">milliseconds</text><line x1="280.5" y1="95.66666666666666" x2="280.5" y2="104.61767169180798" stroke="#496f96" stroke-width="2"/><line x1="240.5" y1="95.66666666666666" x2="320.5" y2="95.66666666666666" stroke="#496f96" stroke-width="2"/><line x1="240.5" y1="104.61767169180798" x2="320.5" y2="104.61767169180798" stroke="#496f96" stroke-width="2"/><rect x="220.5" y="99.32166038531234" width="120" height="3.5555381069310528" fill="#496f96" fill-opacity="0.18" stroke="#496f96" stroke-width="2"/><line x1="220.5" y1="102.0815536010734" x2="340.5" y2="102.0815536010734" stroke="#496f96" stroke-width="3"/><circle cx="256.3" cy="104.61767169180798" r="3.2" fill="#496f96" fill-opacity="0.65"/><circle cx="287.1" cy="104.31930485782186" r="3.2" fill="#496f96" fill-opacity="0.65"/><circle cx="267.3" cy="104.02093802383573" r="3.2" fill="#496f96" fill-opacity="0.65"/><circle cx="298.1" cy="104.02093802290948" r="3.2" fill="#496f96" fill-opacity="0.65"/><circle cx="278.3" cy="103.42420435493722" r="3.2" fill="#496f96" fill-opacity="0.65"/><circle cx="258.5" cy="103.1258375209511" r="3.2" fill="#496f96" fill-opacity="0.65"/><circle cx="289.3" cy="103.1258375209511" r="3.2" fill="#496f96" fill-opacity="0.65"/><circle cx="269.5" cy="102.92692629798492" r="3.2" fill="#496f96" fill-opacity="0.65"/><circle cx="300.3" cy="102.72801507501876" r="3.2" fill="#496f96" fill-opacity="0.65"/><circle cx="280.5" cy="102.6285594639988" r="3.2" fill="#496f96" fill-opacity="0.65"/><circle cx="260.7" cy="102.6285594639988" r="3.2" fill="#496f96" fill-opacity="0.65"/><circle cx="291.5" cy="102.52910385297884" r="3.2" fill="#496f96" fill-opacity="0.65"/><circle cx="271.7" cy="102.42964824103262" r="3.2" fill="#496f96" fill-opacity="0.65"/><circle cx="302.5" cy="102.33019263001268" r="3.2" fill="#496f96" fill-opacity="0.65"/><circle cx="282.7" cy="102.23073701806646" r="3.2" fill="#496f96" fill-opacity="0.65"/><circle cx="262.9" cy="101.93237018408033" r="3.2" fill="#496f96" fill-opacity="0.65"/><circle cx="293.7" cy="101.23618090508812" r="3.2" fill="#496f96" fill-opacity="0.65"/><circle cx="273.9" cy="101.13672529314191" r="3.2" fill="#496f96" fill-opacity="0.65"/><circle cx="304.7" cy="101.13672529314191" r="3.2" fill="#496f96" fill-opacity="0.65"/><circle cx="284.9" cy="100.53999162516965" r="3.2" fill="#496f96" fill-opacity="0.65"/><circle cx="265.1" cy="100.14216917923731" r="3.2" fill="#496f96" fill-opacity="0.65"/><circle cx="295.9" cy="99.84380234525119" r="3.2" fill="#496f96" fill-opacity="0.65"/><circle cx="276.1" cy="99.14761306533272" r="3.2" fill="#496f96" fill-opacity="0.65"/><circle cx="256.3" cy="99.14761306533272" r="3.2" fill="#496f96" fill-opacity="0.65"/><circle cx="287.1" cy="98.55087939736046" r="3.2" fill="#496f96" fill-opacity="0.65"/><circle cx="267.3" cy="97.95414572846195" r="3.2" fill="#496f96" fill-opacity="0.65"/><circle cx="298.1" cy="96.76067839251745" r="3.2" fill="#496f96" fill-opacity="0.65"/><circle cx="278.3" cy="96.26340033556517" r="3.2" fill="#496f96" fill-opacity="0.65"/><circle cx="258.5" cy="95.86557788963282" r="3.2" fill="#496f96" fill-opacity="0.65"/><circle cx="289.3" cy="95.66666666666666" r="3.2" fill="#496f96" fill-opacity="0.65"/><text x="280.5" y="478" text-anchor="middle" font-size="15" font-weight="700" fill="#263645">HTTP/1.1</text><text x="280.5" y="498" text-anchor="middle" font-size="12" fill="#6a7784">n=30, median=424</text><line x1="657.5" y1="405.5703517589674" x2="657.5" y2="412.33333333333337" stroke="#c06a42" stroke-width="2"/><line x1="617.5" y1="405.5703517589674" x2="697.5" y2="405.5703517589674" stroke="#c06a42" stroke-width="2"/><line x1="617.5" y1="412.33333333333337" x2="697.5" y2="412.33333333333337" stroke="#c06a42" stroke-width="2"/><rect x="597.5" y="409.59830402032725" width="120" height="1.2431951428438879" fill="#c06a42" fill-opacity="0.18" stroke="#c06a42" stroke-width="2"/><line x1="597.5" y1="410.19503768945737" x2="717.5" y2="410.19503768945737" stroke="#c06a42" stroke-width="3"/><circle cx="633.3" cy="412.33333333333337" r="3.2" fill="#c06a42" fill-opacity="0.65"/><circle cx="664.1" cy="411.93551088832726" r="3.2" fill="#c06a42" fill-opacity="0.65"/><circle cx="644.3" cy="411.7365996653611" r="3.2" fill="#c06a42" fill-opacity="0.65"/><circle cx="675.1" cy="411.63714405434115" r="3.2" fill="#c06a42" fill-opacity="0.65"/><circle cx="655.3" cy="411.0404103863689" r="3.2" fill="#c06a42" fill-opacity="0.65"/><circle cx="635.5" cy="410.94095477442266" r="3.2" fill="#c06a42" fill-opacity="0.65"/><circle cx="666.3" cy="410.94095477442266" r="3.2" fill="#c06a42" fill-opacity="0.65"/><circle cx="646.5" cy="410.8414991634027" r="3.2" fill="#c06a42" fill-opacity="0.65"/><circle cx="677.3" cy="410.84149916247645" r="3.2" fill="#c06a42" fill-opacity="0.65"/><circle cx="657.5" cy="410.84149916247645" r="3.2" fill="#c06a42" fill-opacity="0.65"/><circle cx="637.7" cy="410.64258794043656" r="3.2" fill="#c06a42" fill-opacity="0.65"/><circle cx="668.5" cy="410.6425879395103" r="3.2" fill="#c06a42" fill-opacity="0.65"/><circle cx="648.7" cy="410.54313232849034" r="3.2" fill="#c06a42" fill-opacity="0.65"/><circle cx="679.5" cy="410.4436767174704" r="3.2" fill="#c06a42" fill-opacity="0.65"/><circle cx="659.7" cy="410.24476549543044" r="3.2" fill="#c06a42" fill-opacity="0.65"/><circle cx="639.9" cy="410.1453098834843" r="3.2" fill="#c06a42" fill-opacity="0.65"/><circle cx="670.7" cy="410.0458542724643" r="3.2" fill="#c06a42" fill-opacity="0.65"/><circle cx="650.9" cy="410.045854271538" r="3.2" fill="#c06a42" fill-opacity="0.65"/><circle cx="681.7" cy="409.9463986605181" r="3.2" fill="#c06a42" fill-opacity="0.65"/><circle cx="661.9" cy="409.9463986605181" r="3.2" fill="#c06a42" fill-opacity="0.65"/><circle cx="642.1" cy="409.8469430494981" r="3.2" fill="#c06a42" fill-opacity="0.65"/><circle cx="672.9" cy="409.7474874375519" r="3.2" fill="#c06a42" fill-opacity="0.65"/><circle cx="653.1" cy="409.54857621458575" r="3.2" fill="#c06a42" fill-opacity="0.65"/><circle cx="633.3" cy="409.54857621458575" r="3.2" fill="#c06a42" fill-opacity="0.65"/><circle cx="664.1" cy="409.54857621458575" r="3.2" fill="#c06a42" fill-opacity="0.65"/><circle cx="644.3" cy="409.34966499254585" r="3.2" fill="#c06a42" fill-opacity="0.65"/><circle cx="675.1" cy="409.15075376957964" r="3.2" fill="#c06a42" fill-opacity="0.65"/><circle cx="655.3" cy="408.25565326669505" r="3.2" fill="#c06a42" fill-opacity="0.65"/><circle cx="635.5" cy="406.06762981591964" r="3.2" fill="#c06a42" fill-opacity="0.65"/><circle cx="666.3" cy="405.5703517589674" r="3.2" fill="#c06a42" fill-opacity="0.65"/><text x="657.5" y="478" text-anchor="middle" font-size="15" font-weight="700" fill="#263645">HTTP/2</text><text x="657.5" y="498" text-anchor="middle" font-size="12" fill="#6a7784">n=30, median=114</text></g></svg>
